[CENTER][IMG]http://img63.imageshack.us/img63/1050/hddesirockers.png[/IMG]
[IMG]http://img156.imageshack.us/img156/5382/roadsignphp.png[/IMG]

[IMG]http://img297.imageshack.us/img297/5821/inthenameofthekingadungz.jpg[/IMG]

[IMG]http://img137.imageshack.us/img137/7919/dvdbluraylogo.gif[/IMG]

[IMG]http://img209.imageshack.us/img209/3343/25ic0hd1.png[/IMG]
[B]A man named Farmer sets out to rescue his kidnapped wife and avenge
the death of his son -- two acts committed by the Krugs, a race of
animal-warriors who are controlled by the evil Gallian. [/B]

[IMG]http://img692.imageshack.us/img692/4868/zvbzx21.png[/IMG]
[B]General
UniqueID                         : 205309953713974124095442316232746371390 (0x9A75423F00C6E01080F72E6F14D8893E)
Complete name                    : In The Name Of The King A Dungeon Siege Tale 2007 BRRip 720p Hindi~3385VKSH
Format                           : Matroska
File size                        : 2.30 GiB
Duration                         : 2h 1mn
Overall bit rate                 : 2 698 Kbps
Encoded date                     : UTC 2011-01-08 06:38:22
Writing application              : mkvmerge v4.4.0 ('Die Wiederkehr') built on Oct 31 2010 21:52:48
Writing library                  : libebml v1.0.0 + libmatroska v1.0.0[/B]

[IMG]http://img839.imageshack.us/img839/7057/imdb3.png[/IMG]
[SIZE=3][URL]http://www.imdb.com/title/tt0460780/[/URL][/SIZE]

[IMG]http://img214.imageshack.us/img214/241/windowsmediaplayerfile.png[/IMG]
[B]Video
ID                               : 1
Format                           : AVC
Format/Info                      : Advanced Video Codec
Format profile                   : High@L4.1
Format settings, CABAC           : Yes
Format settings, ReFrames        : 8 frames
Muxing mode                      : Header stripping
Codec ID                         : V_MPEG4/ISO/AVC
Duration                         : 2h 1mn
Bit rate                         : 2 516 Kbps
Width                            : 1 280 pixels
Height                           : 544 pixels
Display aspect ratio             : 2.35:1
Frame rate                       : 25.000 fps
Original frame rate              : 23.976 fps
Color space                      : YUV
Chroma subsampling               : 4:2:0
Bit depth                        : 8 bits
Scan type                        : Progressive
Bits/(Pixel*Frame)               : 0.145
Stream size                      : 2.14 GiB (93%)[/B]

[IMG]http://img821.imageshack.us/img821/5307/2l3ravv.png[/IMG]
[B]Audio
ID                               : 2
Format                           : MPEG Audio
Format version                   : Version 1
Format profile                   : Layer 3
Muxing mode                      : Header stripping
Codec ID                         : A_MPEG/L3
Codec ID/Hint                    : MP3
Duration                         : 2h 1mn
Bit rate mode                    : Constant
Bit rate                         : 128 Kbps
Channel(s)                       : 2 channels
Sampling rate                    : 44.1 KHz
Compression mode                 : Lossy
Video delay                      : 9ms
Stream size                      : 112 MiB (5%)
Writing library                  : LAME3.96.1[/B]

[IMG]http://img827.imageshack.us/img827/7996/ogtw21.gif[/IMG]
[IMG]http://leetleech.org/images/76885112283001940960.png[/IMG]
[IMG]http://leetleech.org/images/63398741603476553481.png[/IMG]
[IMG]http://leetleech.org/images/91035091730952120035.png[/IMG]
[IMG]http://leetleech.org/images/85699751343220116709.png[/IMG]

[IMG]http://img819.imageshack.us/img819/4206/slqp2p1.gif[/IMG]

[IMG]http://img843.imageshack.us/img843/5108/seedyd3.gif[/IMG]

[IMG]http://img842.imageshack.us/img842/9185/e5ab9ad248f9074c.gif[/IMG]

[IMG]http://img806.imageshack.us/img806/4074/enjoy.png[/IMG]

[IMG]http://img831.imageshack.us/img831/91/15880378.png[/IMG]

[SIZE=3][COLOR=SeaGreen][B]Audio is from VCD taken by me:100:.:jay:.... nt from any
 
[/B][/COLOR][/SIZE][COLOR=SeaGreen]:wallbash:[/COLOR][SIZE=3][COLOR=SeaGreen][B]:tv:[/B][/COLOR][/SIZE][SIZE=3][COLOR=SeaGreen][B] [SIZE=5][COLOR=Red]Rip[/COLOR][/SIZE].[/B][/COLOR][/SIZE][COLOR=SeaGreen]:wallbash:....
[/COLOR]

[SIZE=5][COLOR=Magenta][B]And add repps and hit thanx if u like it....:stupids:[/B][/COLOR][/SIZE]

[COLOR=DeepSkyBlue][SIZE=5][B]Sample is in the torrent...[/B][/SIZE][/COLOR]:groupwave:
[/CENTER]